{"title":"The.Number.Stations.2013.WEBRip.XviD.Ac3.Feel-Free","uid":8371824,"size":762908068,"categoryP":"video","categoryS":"movies","magnet":"?xt=urn:btih:fac0de3fa56b6bd7709cb8cd5adb0f6e1b65d871&amp;dn=The.Number.Stations.2013.WEBRip.XviD.Ac3.Feel-Free&amp;tr=udp%3A%2F%2Ftracker.openbittorrent.com%3A80&amp;tr=udp%3A%2F%2Fopen.demonii.com%3A1337&amp;tr=udp%3A%2F%2Ftracker.coppersurfer.tk%3A6969&amp;tr=udp%3A%2F%2Fexodus.desync.com%3A6969","seeders":1,"leechers":0,"uploader":"Gh0stNet","files":7,"time":1365939758,"description":"Genre:Action | Thriller\nLanguage:English\nIMDb:http://www.imdb.com/title/tt1659338/\nSource:VoXHD Thanks\nSample:Never\nEncoder:Tony\n\nFormat                                   : AVI\nFormat/Info                              : Audio Video Interleave\nFile size                                : 727 MiB\nDuration                                 : 1h 28mn\nOverall bit rate                         : 1 143 Kbps\n\nVideo\nID                                       : 0\nFormat                                   : MPEG-4 Visual\nFormat profile                           : Advanced Simple@L5\nFormat settings, BVOP                    : 1\nFormat settings, QPel                    : No\nFormat settings, GMC                     : No warppoints\nFormat settings, Matrix                  : Default (H.263)\nCodec ID                                 : XVID\nCodec ID/Hint                            : XviD\nDuration                                 : 1h 28mn\nBit rate                                 : 749 Kbps\nWidth                                    : 640 pixels\nHeight                                   : 264 pixels\nDisplay aspect ratio                     : 2.40:1\nFrame rate                               : 23.976 fps\nColor space                              : YUV\nChroma subsampling                       : 4:2:0\nBit depth                                : 8 bits\nScan type                                : Progressive\nCompression mode                         : Lossy\nBits/(Pixel*Frame)                       : 0.185\nStream size                              : 477 MiB (66%)\nWriting library                          : XviD 1.2.1 (UTC 2008-12-04)\n\nAudio\nID                                       : 1\nFormat                                   : AC-3\nFormat/Info                              : Audio Coding 3\nMode extension                           : CM (complete main)\nCodec ID                                 : 2000\nDuration                                 : 1h 28mn\nBit rate mode                            : Constant\nBit rate                                 : 384 Kbps\nChannel(s)                               : 6 channels\nChannel positions                        : Front: L C R, Side: L R, LFE\nSampling rate                            : 48.0 KHz\nBit depth                                : 16 bits\nCompression mode                         : Lossy\nStream size                              : 244 MiB (34%)\nAlignment                                : Aligned on interleaves\nInterleave, duration                     : 42 ms (1.00 video frame)\nInterleave, preload duration             : 512 ms\n\nScreens: &lt;a href=&quot;\nhttp://i.imgur.com/8fynDSb.png&quot; rel=&quot;nofollow&quot; target=&quot;_NEW&quot;&gt;\nhttp://i.imgur.com/8fynDSb.png&lt;/a&gt; &lt;a href=&quot;\nhttp://i.imgur.com/PQ5W0KO.png&quot; rel=&quot;nofollow&quot; target=&quot;_NEW&quot;&gt;\nhttp://i.imgur.com/PQ5W0KO.png&lt;/a&gt; &lt;a href=&quot;\nhttp://i.imgur.com/xxuQZ9j.png&quot; rel=&quot;nofollow&quot; target=&quot;_NEW&quot;&gt;\nhttp://i.imgur.com/xxuQZ9j.png&lt;/a&gt;","torrent":{"xt":"urn:btih:fac0de3fa56b6bd7709cb8cd5adb0f6e1b65d871","amp;dn":"The.Number.Stations.2013.WEBRip.XviD.Ac3.Feel-Free","amp;tr":["udp%3A%2F%2Ftracker.openbittorrent.com%3A80","udp%3A%2F%2Fopen.demonii.com%3A1337","udp%3A%2F%2Ftracker.coppersurfer.tk%3A6969","udp%3A%2F%2Fexodus.desync.com%3A6969"],"infoHash":"fac0de3fa56b6bd7709cb8cd5adb0f6e1b65d871","infoHashBuffer":{"type":"Buffer","data":[250,192,222,63,165,107,107,215,112,156,184,205,90,219,15,110,27,101,216,113]},"announce":[],"urlList":[]}}